<?xml version="1.0" encoding="UTF-8"?>
<svg version="1.1" xmlns="http://www.w3.org/2000/svg" width="64" height="64">
<path d="M0 0 C3.1875 0.375 3.1875 0.375 5.375 2.3125 C7.65821364 6.17034374 8.9531171 10.08271401 10.1875 14.375 C10.97125 14.21 11.755 14.045 12.5625 13.875 C15.53231308 13.46537061 18.38434192 13.18072514 21.375 13.0625 C22.21417969 13.02511719 23.05335937 12.98773438 23.91796875 12.94921875 C26.1875 13.375 26.1875 13.375 27.98046875 15.22265625 C29.1875 17.375 29.1875 17.375 29.3125 20.125 C27.68947382 24.8137423 24.60663827 27.85766194 21.1875 31.375 C22.48445771 34.18608044 23.63285162 35.8746628 25.75 38.25 C28.32754518 41.5545451 29.1875 43.21533445 29.1875 47.375 C27.98828125 49.53515625 27.98828125 49.53515625 26.1875 51.375 C23.91796875 51.80078125 23.91796875 51.80078125 21.375 51.6875 C20.49457031 51.65269531 19.61414062 51.61789063 18.70703125 51.58203125 C15.82627737 51.34531814 13.0166178 50.97060375 10.1875 50.375 C9.93355469 51.13425781 9.67960937 51.89351562 9.41796875 52.67578125 C9.07378906 53.66964844 8.72960938 54.66351563 8.375 55.6875 C8.03855469 56.67363281 7.70210937 57.65976562 7.35546875 58.67578125 C6.22783718 61.28177929 5.42748537 62.67238485 3.1875 64.375 C0.25 64.875 0.25 64.875 -2.8125 64.375 C-6.56265205 60.72901884 -8.70433369 56.80874207 -8.9375 51.5625 C-8.89625 50.840625 -8.855 50.11875 -8.8125 49.375 C-10.235625 49.87 -10.235625 49.87 -11.6875 50.375 C-16.23182074 51.65482911 -21.15820045 52.33515271 -25.8125 51.375 C-28.10988109 48.99736105 -28.78587141 47.96082893 -28.9375 44.625 C-27.31447382 39.9362577 -24.23163827 36.89233806 -20.8125 33.375 C-22.10945771 30.56391956 -23.25785162 28.8753372 -25.375 26.5 C-27.95254518 23.1954549 -28.8125 21.53466555 -28.8125 17.375 C-27.609375 15.21875 -27.609375 15.21875 -25.8125 13.375 C-20.0619806 12.18870404 -14.26280623 13.47924131 -8.8125 15.375 C-8.73 14.17875 -8.6475 12.9825 -8.5625 11.75 C-7.92733043 6.49116957 -5.64331964 0.75244262 0 0 Z M-0.8125 3.375 C-3.92270134 5.91971018 -4.81383026 8.53396252 -5.8125 12.375 C-5.98107483 15.12565232 -5.98107483 15.12565232 -5.8125 17.375 C-3.13170844 19.12782525 -1.94361361 19.38811136 1.3125 19.0625 C4.10929558 18.50865666 4.10929558 18.50865666 6.1875 17.375 C5.60117234 10.39806186 5.60117234 10.39806186 2.1875 4.375 C1.1975 4.045 0.2075 3.715 -0.8125 3.375 Z M-23.8125 16.375 C-24.8025 17.86 -24.8025 17.86 -25.8125 19.375 C-24.90316991 20.65109323 -23.98467147 21.92065553 -23.0625 23.1875 C-22.29679687 24.24904297 -22.29679687 24.24904297 -21.515625 25.33203125 C-19.78767642 27.40477691 -18.02723524 28.84875854 -15.8125 30.375 C-12.1127581 28.10239371 -12.1127581 28.10239371 -10.2578125 24.328125 C-10.02652785 22.35169255 -9.91187182 20.36243631 -9.8125 18.375 C-16.7042859 16.42862046 -16.7042859 16.42862046 -23.8125 16.375 Z M10.1875 18.375 C10.31678146 22.45537108 10.31678146 22.45537108 11.1875 26.375 C14.08903551 28.92298166 14.08903551 28.92298166 17.1875 30.375 C18.50568554 28.94271184 19.81686704 27.50397516 21.125 26.0625 C21.85589844 25.26199219 22.58679688 24.46148437 23.33984375 23.63671875 C25.36701559 21.42860602 25.36701559 21.42860602 26.1875 18.375 C24.34602203 16.1089344 24.34602203 16.1089344 21.5625 16.125 C17.55761327 16.42165828 14.05671542 17.30763023 10.1875 18.375 Z M-6.8125 20.375 C-6.4825 21.365 -6.1525 22.355 -5.8125 23.375 C-5.1525 22.715 -4.4925 22.055 -3.8125 21.375 C-4.8025 21.045 -5.7925 20.715 -6.8125 20.375 Z M5.1875 20.375 C4.8575 21.035 4.5275 21.695 4.1875 22.375 C5.5075 22.705 6.8275 23.035 8.1875 23.375 C7.8575 22.385 7.5275 21.395 7.1875 20.375 C6.5275 20.375 5.8675 20.375 5.1875 20.375 Z M-4.4375 25.375 C-5.55125 26.035 -6.665 26.695 -7.8125 27.375 C-7.8125 30.675 -7.8125 33.975 -7.8125 37.375 C-5.44019349 38.98816843 -3.45381875 40.33544483 -0.8125 41.375 C2.91550985 40.65807503 5.03016549 39.47988967 8.1875 37.375 C8.55166047 34.93806689 8.55166047 34.93806689 8.375 32.25 C8.34792969 31.33992188 8.32085937 30.42984375 8.29296875 29.4921875 C8.25816406 28.79351562 8.22335938 28.09484375 8.1875 27.375 C6.516875 26.385 6.516875 26.385 4.8125 25.375 C4.18601562 25.00375 3.55953125 24.6325 2.9140625 24.25 C-0.18042602 22.68175242 -1.63578876 23.71472667 -4.4375 25.375 Z M-11.8125 30.375 C-11.8125 31.695 -11.8125 33.015 -11.8125 34.375 C-11.4825 33.055 -11.1525 31.735 -10.8125 30.375 C-11.1425 30.375 -11.4725 30.375 -11.8125 30.375 Z M11.1875 30.375 C11.5175 31.695 11.8475 33.015 12.1875 34.375 C12.1875 33.055 12.1875 31.735 12.1875 30.375 C11.8575 30.375 11.5275 30.375 11.1875 30.375 Z M-16.8125 34.375 C-18.13068554 35.80728816 -19.44186704 37.24602484 -20.75 38.6875 C-21.84634766 39.88826172 -21.84634766 39.88826172 -22.96484375 41.11328125 C-24.99201559 43.32139398 -24.99201559 43.32139398 -25.8125 46.375 C-23.98972861 48.66695757 -23.98972861 48.66695757 -21.31640625 48.38671875 C-19.86041016 48.22623047 -19.86041016 48.22623047 -18.375 48.0625 C-16.92287109 47.91361328 -16.92287109 47.91361328 -15.44140625 47.76171875 C-12.71120507 47.43834224 -12.71120507 47.43834224 -9.8125 46.375 C-9.94178146 42.29462892 -9.94178146 42.29462892 -10.8125 38.375 C-13.71403551 35.82701834 -13.71403551 35.82701834 -16.8125 34.375 Z M16.1875 34.375 C12.4877581 36.64760629 12.4877581 36.64760629 10.6328125 40.421875 C10.40152785 42.39830745 10.28687182 44.38756369 10.1875 46.375 C17.0792859 48.32137954 17.0792859 48.32137954 24.1875 48.375 C24.8475 47.385 25.5075 46.395 26.1875 45.375 C25.27816991 44.09890677 24.35967147 42.82934447 23.4375 41.5625 C22.92703125 40.85480469 22.4165625 40.14710937 21.890625 39.41796875 C20.16267642 37.34522309 18.40223524 35.90124146 16.1875 34.375 Z M-6.8125 41.375 C-6.8125 42.365 -6.8125 43.355 -6.8125 44.375 C-5.8225 44.045 -4.8325 43.715 -3.8125 43.375 C-4.8025 42.715 -5.7925 42.055 -6.8125 41.375 Z M6.1875 41.375 C5.5275 42.035 4.8675 42.695 4.1875 43.375 C5.1775 43.705 6.1675 44.035 7.1875 44.375 C7.5175 43.385 7.8475 42.395 8.1875 41.375 C7.5275 41.375 6.8675 41.375 6.1875 41.375 Z M-5.8125 47.375 C-5.27938425 54.38761387 -5.27938425 54.38761387 -1.8125 60.375 C-0.4925 60.375 0.8275 60.375 2.1875 60.375 C5.54541973 56.39524328 5.76334877 52.37998447 6.1875 47.375 C1.76749187 44.84928107 -1.39249187 44.84928107 -5.8125 47.375 Z " fill="#00A7F0" transform="translate(31.8125,-0.375)"/>
<path d="M0 0 C2.9375 0.8125 2.9375 0.8125 4.9375 3.8125 C4.75 6.875 4.75 6.875 3.9375 9.8125 C0.9375 11.8125 0.9375 11.8125 -2.125 11.625 C-5.0625 10.8125 -5.0625 10.8125 -7.0625 7.8125 C-6.875 4.75 -6.875 4.75 -6.0625 1.8125 C-3.0625 -0.1875 -3.0625 -0.1875 0 0 Z M-2.0625 2.8125 C-2.7225 4.1325 -3.3825 5.4525 -4.0625 6.8125 C-2.0825 7.8025 -2.0825 7.8025 -0.0625 8.8125 C0.5975 7.4925 1.2575 6.1725 1.9375 4.8125 C0.6175 4.1525 -0.7025 3.4925 -2.0625 2.8125 Z " fill="#00A6EF" transform="translate(33.0625,26.1875)"/>
</svg>
