<?xml version="1.0" encoding="UTF-8"?>
<svg version="1.1" xmlns="http://www.w3.org/2000/svg" width="64" height="64">
<path d="M0 0 C15.18 0 30.36 0 46 0 C44.82289762 23.54204753 44.82289762 23.54204753 44.0625 31.875 C43.95131836 33.23818359 43.95131836 33.23818359 43.83789062 34.62890625 C42.96708666 44.3281049 42.96708666 44.3281049 41 48 C29.55939835 53.61520343 19.79474089 52.42180875 7.9765625 49.4609375 C5 48 5 48 3.8671875 45.39257812 C2.91939805 41.68467209 2.45417028 38.05962275 2.1484375 34.2578125 C2.08467926 33.53061005 2.02092102 32.80340759 1.95523071 32.0541687 C1.82248614 30.52322511 1.69326145 28.99197264 1.56738281 27.46044922 C1.37608832 25.13821177 1.17336468 22.81719155 0.96875 20.49609375 C0.84046913 19.00005787 0.71284362 17.50396562 0.5859375 16.0078125 C0.52659027 15.32421661 0.46724304 14.64062073 0.40609741 13.93630981 C0.02542372 9.24429019 0 4.74162997 0 0 Z " fill="#014DE8" transform="translate(9,12)"/>
<path d="M0 0 C9.24 0 18.48 0 28 0 C27.34 9.57 26.68 19.14 26 29 C15.71641649 32.08507505 11.49805375 31.90756747 2 29 C2 26.03 2 23.06 2 20 C3.65 20 5.3 20 7 20 C7.33 21.32 7.66 22.64 8 24 C14.06050614 25.0812391 14.06050614 25.0812391 20 24 C20.33 21.69 20.66 19.38 21 17 C14.4 17 7.8 17 1 17 C1 15.35 1 13.7 1 12 C10.9 11.505 10.9 11.505 21 11 C21.33 9.35 21.66 7.7 22 6 C14.74 6 7.48 6 0 6 C0 4.02 0 2.04 0 0 Z " fill="#FAFCFE" transform="translate(18,22)"/>
<path d="M0 0 C5.94 0 11.88 0 18 0 C18.20186435 8.27643853 17.81300251 16.32319942 17.0625 24.5625 C16.97564941 25.52623535 16.88879883 26.4899707 16.79931641 27.48291016 C15.96036525 36.28336819 15.96036525 36.28336819 15 39 C12.3828125 40.265625 12.3828125 40.265625 9.125 41.25 C8.05507813 41.58515625 6.98515625 41.9203125 5.8828125 42.265625 C3 43 3 43 0 43 C0 41.02 0 39.04 0 37 C1.43554025 36.49440092 2.8735202 35.9957251 4.3125 35.5 C5.11300781 35.2215625 5.91351563 34.943125 6.73828125 34.65625 C9 34 9 34 12 34 C11.97679687 33.2471875 11.95359375 32.494375 11.9296875 31.71875 C11.77552726 22.64531854 12.71236838 13.95593781 14 5 C9.38 5 4.76 5 0 5 C0 3.35 0 1.7 0 0 Z " fill="#0768F3" transform="translate(32,17)"/>
<path d="M0 0 C5.28 0 10.56 0 16 0 C16 2.97 16 5.94 16 9 C10.72 9 5.44 9 0 9 C0 6.03 0 3.06 0 0 Z " fill="#000000" transform="translate(28,0)"/>
<path d="M0 0 C4.62 0 9.24 0 14 0 C14 1.65 14 3.3 14 5 C16.64 5 19.28 5 22 5 C22 5.33 22 5.66 22 6 C14.74 6 7.48 6 0 6 C0 4.02 0 2.04 0 0 Z " fill="#D9E0EC" transform="translate(18,22)"/>
<path d="M0 0 C1.65 0 3.3 0 5 0 C5.33 1.32 5.66 2.64 6 4 C8.31 4.66 10.62 5.32 13 6 C12.67 7.98 12.34 9.96 12 12 C10.56206608 11.68950274 9.1246682 11.3765224 7.6875 11.0625 C6.88699219 10.88847656 6.08648437 10.71445312 5.26171875 10.53515625 C3 10 3 10 0 9 C0 6.03 0 3.06 0 0 Z " fill="#E1E4EB" transform="translate(20,42)"/>
<path d="M0 0 C4.29 0 8.58 0 13 0 C13 1.65 13 3.3 13 5 C8.71 5 4.42 5 0 5 C0 3.35 0 1.7 0 0 Z " fill="#E9E9EB" transform="translate(19,34)"/>
<path d="M0 0 C2.64 0 5.28 0 8 0 C8.042721 1.66611905 8.04063832 3.33382885 8 5 C7 6 7 6 5.05053711 6.11352539 C4.2178833 6.10828857 3.38522949 6.10305176 2.52734375 6.09765625 C1.62822266 6.09443359 0.72910156 6.09121094 -0.19726562 6.08789062 C-1.14279297 6.07951172 -2.08832031 6.07113281 -3.0625 6.0625 C-4.01189453 6.05798828 -4.96128906 6.05347656 -5.93945312 6.04882812 C-8.29303065 6.0370011 -10.64648477 6.02052025 -13 6 C-13 5.67 -13 5.34 -13 5 C-8.71 5 -4.42 5 0 5 C0 3.35 0 1.7 0 0 Z " fill="#2B7BF2" transform="translate(32,28)"/>
<path d="M0 0 C2.31 0 4.62 0 7 0 C7 2.31 7 4.62 7 7 C4.69 7.66 2.38 8.32 0 9 C0 6.03 0 3.06 0 0 Z " fill="#1270F4" transform="translate(32,39)"/>
<path d="M0 0 C2.31 0 4.62 0 7 0 C7 0.99 7 1.98 7 3 C5.68 3 4.36 3 3 3 C3 3.66 3 4.32 3 5 C4.32 5 5.64 5 7 5 C7 6.32 7 7.64 7 9 C4.69 9 2.38 9 0 9 C0 6.03 0 3.06 0 0 Z " fill="#000000" transform="translate(20,0)"/>
</svg>
