<?xml version="1.0" encoding="UTF-8"?>
<svg version="1.1" xmlns="http://www.w3.org/2000/svg" width="64" height="64">
<path d="M0 0 C6.69421246 5.68110368 10.61756703 12.74017056 11.35546875 21.4765625 C11.78659696 31.81386883 10.32228901 39.01624954 3.6015625 47.04296875 C-0.43550815 51.3727055 -4.21712632 54.91663364 -9.9609375 56.73046875 C-10.9509375 56.73046875 -11.9409375 56.73046875 -12.9609375 56.73046875 C-14.35565258 53.94103858 -14.26702927 51.39896311 -14.4609375 48.29296875 C-14.67724052 44.83598297 -14.86442654 42.02000164 -15.9609375 38.73046875 C-15.35765625 38.5603125 -14.754375 38.39015625 -14.1328125 38.21484375 C-7.57522104 36.38971818 -7.57522104 36.38971818 -2.9609375 31.73046875 C-1.68402801 26.10825532 -1.65473759 22.02116265 -3.9609375 16.73046875 C-4.13995418 13.72298851 -4.07894669 10.73970303 -3.9609375 7.73046875 C-4.8478125 8.03984375 -5.7346875 8.34921875 -6.6484375 8.66796875 C-12.07105685 10.40729949 -16.87741792 10.88982023 -22.5859375 10.91796875 C-24.55433594 10.93923828 -24.55433594 10.93923828 -26.5625 10.9609375 C-29.9609375 10.73046875 -29.9609375 10.73046875 -32.9609375 8.73046875 C-34.61643281 8.34546984 -36.2831808 8.0025374 -37.9609375 7.73046875 C-37.93773437 8.32214844 -37.91453125 8.91382812 -37.890625 9.5234375 C-37.7377224 16.21838705 -37.7377224 16.21838705 -39.0234375 19.16796875 C-40.56699497 23.38702582 -40.04041588 27.41965705 -38.9609375 31.73046875 C-35.53685403 36.60719369 -31.43960638 37.96615165 -25.9609375 39.73046875 C-26.5859375 42.16796875 -26.5859375 42.16796875 -27.9609375 44.73046875 C-30.5859375 45.91796875 -30.5859375 45.91796875 -33.9609375 45.73046875 C-36.8721759 44.00257546 -39.41743453 41.95764775 -41.9609375 39.73046875 C-39.24195168 44.72114522 -39.24195168 44.72114522 -34.625 47.640625 C-32.40274259 48.11381861 -30.21955008 48.48935325 -27.9609375 48.73046875 C-27.8359375 54.48046875 -27.8359375 54.48046875 -28.9609375 56.73046875 C-36.68284322 56.34437346 -41.72704052 51.25319716 -46.7734375 45.85546875 C-53.75098725 37.34859303 -53.89410593 28.35586379 -52.9609375 17.73046875 C-51.37134822 10.52054594 -47.64219451 4.45137093 -41.9609375 -0.26953125 C-27.78621711 -8.89843928 -13.83396329 -9.89886066 0 0 Z " fill="#000000" transform="translate(52.9609375,7.26953125)"/>
</svg>
