<?xml version="1.0" encoding="UTF-8"?>
<svg version="1.1" xmlns="http://www.w3.org/2000/svg" width="64" height="64">
<path d="M0 0 C15.18 0 30.36 0 46 0 C44.82289762 23.54204753 44.82289762 23.54204753 44.0625 31.875 C43.95131836 33.23818359 43.95131836 33.23818359 43.83789062 34.62890625 C42.96708666 44.3281049 42.96708666 44.3281049 41 48 C29.55939835 53.61520343 19.79474089 52.42180875 7.9765625 49.4609375 C5 48 5 48 3.8671875 45.39257812 C2.91939805 41.68467209 2.45417028 38.05962275 2.1484375 34.2578125 C2.08467926 33.53061005 2.02092102 32.80340759 1.95523071 32.0541687 C1.82248614 30.52322511 1.69326145 28.99197264 1.56738281 27.46044922 C1.37608832 25.13821177 1.17336468 22.81719155 0.96875 20.49609375 C0.84046913 19.00005787 0.71284362 17.50396562 0.5859375 16.0078125 C0.52659027 15.32421661 0.46724304 14.64062073 0.40609741 13.93630981 C0.02542372 9.24429019 0 4.74162997 0 0 Z " fill="#FE4D1F" transform="translate(9,12)"/>
<path d="M0 0 C9.24 0 18.48 0 28 0 C28 1.98 28 3.96 28 6 C20.74 6 13.48 6 6 6 C6 7.98 6 9.96 6 12 C12.93 12 19.86 12 27 12 C26.67 17.61 26.34 23.22 26 29 C16.88171287 32.12270107 11.0924564 31.78340502 2 29 C2 26.03 2 23.06 2 20 C3.65 20 5.3 20 7 20 C7.33 21.32 7.66 22.64 8 24 C14.06050614 25.0812391 14.06050614 25.0812391 20 24 C20.33 21.69 20.66 19.38 21 17 C14.4 17 7.8 17 1 17 C0.67 11.39 0.34 5.78 0 0 Z " fill="#EDE5E2" transform="translate(18,22)"/>
<path d="M0 0 C5.94 0 11.88 0 18 0 C17.40615754 13.06453404 16.41098651 25.99974565 15 39 C13.06441401 39.67220351 11.12645628 40.33758077 9.1875 41 C8.10855469 41.37125 7.02960937 41.7425 5.91796875 42.125 C3 43 3 43 0 43 C-0.33 41.02 -0.66 39.04 -1 37 C0.60256108 36.49487756 2.20711792 35.99608373 3.8125 35.5 C4.70582031 35.2215625 5.59914063 34.943125 6.51953125 34.65625 C9 34 9 34 12 34 C11.98839844 33.10796875 11.97679688 32.2159375 11.96484375 31.296875 C11.95582031 30.12640625 11.94679688 28.9559375 11.9375 27.75 C11.92589844 26.58984375 11.91429688 25.4296875 11.90234375 24.234375 C12 21 12 21 13 17 C6.07 17 -0.86 17 -8 17 C-8 15.02 -8 13.04 -8 11 C-0.74 11 6.52 11 14 11 C14 9.02 14 7.04 14 5 C9.38 5 4.76 5 0 5 C0 3.35 0 1.7 0 0 Z " fill="#FE6A27" transform="translate(32,17)"/>
<path d="M0 0 C4.29 0 8.58 0 13 0 C12.67 5.61 12.34 11.22 12 17 C2.88171287 20.12270107 -2.9075436 19.78340502 -12 17 C-12 14.03 -12 11.06 -12 8 C-10.35 8 -8.7 8 -7 8 C-6.67 9.32 -6.34 10.64 -6 12 C0.06050614 13.0812391 0.06050614 13.0812391 6 12 C6.33 9.69 6.66 7.38 7 5 C4.69 5 2.38 5 0 5 C0 3.35 0 1.7 0 0 Z " fill="#FFFBF9" transform="translate(32,34)"/>
<path d="M0 0 C7.92 0 15.84 0 24 0 C24 1.65 24 3.3 24 5 C25.32 5 26.64 5 28 5 C28 6.32 28 7.64 28 9 C21.66666667 9 15.33333333 9 9 9 C9 7.02 9 5.04 9 3 C8.01 3 7.02 3 6 3 C6 4.98 6 6.96 6 9 C4.68 9 3.36 9 2 9 C2 7.02 2 5.04 2 3 C1.34 3 0.68 3 0 3 C0 2.01 0 1.02 0 0 Z " fill="#000000" transform="translate(23,0)"/>
<path d="M0 0 C1.65 0 3.3 0 5 0 C5.33 1.32 5.66 2.64 6 4 C8.31 4.66 10.62 5.32 13 6 C12.67 7.98 12.34 9.96 12 12 C10.3743193 11.69106068 8.74947252 11.3777305 7.125 11.0625 C6.22007813 10.88847656 5.31515625 10.71445312 4.3828125 10.53515625 C2 10 2 10 0 9 C0 6.03 0 3.06 0 0 Z " fill="#ECE4E2" transform="translate(20,42)"/>
<path d="M0 0 C1.32 0 2.64 0 4 0 C4 0.66 4 1.32 4 2 C4.66 2 5.32 2 6 2 C6 1.34 6 0.68 6 0 C6.99 0 7.98 0 9 0 C9 2.97 9 5.94 9 9 C8.01 9 7.02 9 6 9 C6 8.01 6 7.02 6 6 C5.34 6 4.68 6 4 6 C4 6.99 4 7.98 4 9 C2.68 9 1.36 9 0 9 C0 6.03 0 3.06 0 0 Z " fill="#000000" transform="translate(13,0)"/>
<path d="M0 0 C6.6 0 13.2 0 20 0 C20 2.31 20 4.62 20 7 C17.69 7.66 15.38 8.32 13 9 C13 6.36 13 3.72 13 1 C8.71 1 4.42 1 0 1 C0 0.67 0 0.34 0 0 Z " fill="#FE6F32" transform="translate(19,39)"/>
<path d="M0 0 C4.62 0 9.24 0 14 0 C13.67 1.65 13.34 3.3 13 5 C8.71 5 4.42 5 0 5 C0 3.35 0 1.7 0 0 Z " fill="#FFFCFB" transform="translate(32,22)"/>
<path d="M0 0 C2.64 0 5.28 0 8 0 C8 1.65 8 3.3 8 5 C5.69 5 3.38 5 1 5 C0.67 3.35 0.34 1.7 0 0 Z " fill="#FE4D20" transform="translate(24,28)"/>
</svg>
