<?xml version="1.0" encoding="UTF-8"?>
<svg version="1.1" xmlns="http://www.w3.org/2000/svg" width="96" height="96">
<path d="M0 0 C2.34643555 0.24780273 2.34643555 0.24780273 5 1 C6.39379883 2.76586914 6.39379883 2.76586914 7.45703125 5.03515625 C8.04194336 6.24848633 8.04194336 6.24848633 8.63867188 7.48632812 C9.02603516 8.33646484 9.41339844 9.18660156 9.8125 10.0625 C10.42254883 11.34350586 10.42254883 11.34350586 11.04492188 12.65039062 C12.04658109 14.75976708 13.03053967 16.87568075 14 19 C15.74271938 16.702779 17.39911152 14.40133271 19 12 C20.32 12 21.64 12 23 12 C24.17154293 14.28929053 25.33738074 16.58118362 26.5 18.875 C26.83386719 19.52597656 27.16773438 20.17695313 27.51171875 20.84765625 C30 25.7734375 30 25.7734375 30 28 C31.27200971 26.89718873 32.54255853 25.79269231 33.8125 24.6875 C34.52019531 24.07261719 35.22789063 23.45773438 35.95703125 22.82421875 C37.987521 21.09940406 37.987521 21.09940406 39.44921875 19.26953125 C41.61577999 17.49589799 43.27531376 17.91003525 46 18 C46.67717653 22.15825086 47.35253257 26.31679255 48.02636719 30.47558594 C48.25473597 31.88354024 48.48356007 33.29142078 48.71289062 34.69921875 C49.48887556 39.46403851 50.25081448 44.23089401 51 49 C51.20141602 50.27584961 51.40283203 51.55169922 51.61035156 52.86621094 C51.96747384 55.22498155 52.3010644 57.58749316 52.60571289 59.95361328 C52.84222702 61.78099612 53.12391529 63.60456939 53.49389648 65.40966797 C53.78515625 67.453125 53.78515625 67.453125 53 71 C49.81169905 73.86621018 46.21729905 75.76315186 42.4375 77.75 C41.44685547 78.30042969 40.45621094 78.85085937 39.43554688 79.41796875 C37.50468679 80.48796032 35.56519731 81.54255328 33.61669922 82.58007812 C31.40584882 83.77977079 29.29010823 85.05625377 27.16015625 86.390625 C23.57525719 88.21630907 21.96853217 88.390895 18 88 C14.7644043 86.54711914 14.7644043 86.54711914 11.32421875 84.53515625 C10.71359085 84.1823912 10.10296295 83.82962616 9.47383118 83.46617126 C7.53777742 82.34359589 5.61287394 81.20327503 3.6875 80.0625 C2.37501879 79.29897762 1.06187358 78.53659542 -0.25195312 77.77539062 C-9.75347822 72.24652178 -9.75347822 72.24652178 -11 71 C-11.46358895 63.507897 -10.08266705 56.31603416 -8.84765625 48.9453125 C-8.62538483 47.59397892 -8.40358589 46.24256755 -8.18223572 44.89108276 C-7.71960815 42.07482876 -7.25272286 39.25932664 -6.7824707 36.44433594 C-6.17949927 32.83397415 -5.58513995 29.2222604 -4.99364567 25.61000252 C-4.53730775 22.82667854 -4.07757983 20.04392347 -3.61669731 17.26134872 C-3.28911283 15.28172254 -2.96352153 13.30176687 -2.63795471 11.32180786 C-2.43782272 10.12651459 -2.23769073 8.93122131 -2.03149414 7.69970703 C-1.85606583 6.64461945 -1.68063751 5.58953186 -1.49989319 4.50247192 C-1 2 -1 2 0 0 Z " fill="#FFC300" transform="translate(27,4)"/>
<path d="M0 0 C2.34643555 0.24780273 2.34643555 0.24780273 5 1 C6.39379883 2.76586914 6.39379883 2.76586914 7.45703125 5.03515625 C8.04194336 6.24848633 8.04194336 6.24848633 8.63867188 7.48632812 C9.02603516 8.33646484 9.41339844 9.18660156 9.8125 10.0625 C10.42254883 11.34350586 10.42254883 11.34350586 11.04492188 12.65039062 C12.04658109 14.75976708 13.03053967 16.87568075 14 19 C15.74271938 16.702779 17.39911152 14.40133271 19 12 C20.32 12 21.64 12 23 12 C24.39489126 14.57426284 25.76570979 17.15703057 27.125 19.75 C27.52332031 20.47960937 27.92164063 21.20921875 28.33203125 21.9609375 C28.69941406 22.66992188 29.06679688 23.37890625 29.4453125 24.109375 C29.79094238 24.75874023 30.13657227 25.40810547 30.49267578 26.07714844 C31 28 31 28 30.2421875 30.08374023 C28.44647351 32.85389728 26.2250662 34.9984376 23.875 37.3125 C22.96492188 38.21613281 22.05484375 39.11976562 21.1171875 40.05078125 C18.90491712 42.18449243 16.61863218 44.20312925 14.28515625 46.203125 C9.11757676 50.68607389 4.36214948 55.56773147 -0.4375 60.4375 C-2.22559426 62.25093932 -4.01583357 64.06226701 -5.80859375 65.87109375 C-6.98119751 67.06109985 -6.98119751 67.06109985 -8.17749023 68.27514648 C-10 70 -10 70 -11 70 C-10.45225348 61.15726319 -9.42700054 52.50583363 -7.96875 43.76953125 C-7.77277222 42.57188644 -7.57679443 41.37424164 -7.37487793 40.14030457 C-6.96397307 37.63664195 -6.55041195 35.13341392 -6.13427734 32.63061523 C-5.49550241 28.78542614 -4.86628672 24.93875804 -4.23828125 21.09179688 C-3.83649443 18.65094993 -3.43417036 16.21019134 -3.03125 13.76953125 C-2.84268433 12.61757767 -2.65411865 11.46562408 -2.45983887 10.27876282 C-2.28295532 9.21973251 -2.10607178 8.16070221 -1.92382812 7.06958008 C-1.76918091 6.13616287 -1.61453369 5.20274567 -1.4552002 4.24104309 C-1 2 -1 2 0 0 Z " fill="#FF9B00" transform="translate(27,4)"/>
<path d="M0 0 C2.55787117 2.45387468 4.12909333 4.76719726 5.75 7.9375 C6.19859375 8.79214844 6.6471875 9.64679687 7.109375 10.52734375 C8 13 8 13 7.98828125 14.98828125 C6.47336809 18.07199775 3.99050464 20.03547182 1.4375 22.25 C-4.15856301 27.24662737 -9.52522208 32.42775409 -14.8125 37.75 C-15.52414307 38.46575195 -16.23578613 39.18150391 -16.96899414 39.91894531 C-18.64806891 41.61059819 -20.32518442 43.30413181 -22 45 C-22.66 44.67 -23.32 44.34 -24 44 C-21.71040653 39.66068626 -19.41735587 35.32322253 -17.12133789 30.98730469 C-16.34373533 29.51773368 -15.5670147 28.0476956 -14.79125977 26.57714844 C-10.05273561 17.59631274 -5.21106747 8.71821519 0 0 Z " fill="#FF7100" transform="translate(41,27)"/>
</svg>
