<?xml version="1.0" encoding="UTF-8"?>
<svg version="1.1" xmlns="http://www.w3.org/2000/svg" width="96" height="96">
<path d="M0 0 C4.45893824 1.23312383 8.43961008 2.94339373 12.58984375 4.96484375 C13.36070313 5.32513672 14.1315625 5.68542969 14.92578125 6.05664062 C20.5810914 8.75983905 20.5810914 8.75983905 21.71484375 11.02734375 C21.82107929 12.85960666 21.86365308 14.69570711 21.87597656 16.53100586 C21.88558411 17.68237534 21.89519165 18.83374481 21.90509033 20.02000427 C21.90934021 21.26894974 21.91359009 22.5178952 21.91796875 23.8046875 C21.92366882 25.08211319 21.9293689 26.35953888 21.9352417 27.67567444 C21.9447017 30.38171963 21.95159359 33.08765363 21.95507812 35.79370117 C21.96056659 39.26190277 21.98460263 42.7297125 22.01305008 46.1977911 C22.0361454 49.50422704 22.03812384 52.81068217 22.04296875 56.1171875 C22.05531555 57.36410873 22.06766235 58.61102997 22.0803833 59.89573669 C22.0773822 61.05025833 22.0743811 62.20477997 22.07128906 63.39428711 C22.07675751 64.9207914 22.07675751 64.9207914 22.08233643 66.47813416 C21.65837055 69.41908497 21.03928454 70.25271412 18.71484375 72.02734375 C16.01985735 73.61753741 13.17386757 74.89118229 10.33984375 76.21484375 C9.58445312 76.58287109 8.8290625 76.95089844 8.05078125 77.33007812 C7.3134375 77.67748047 6.57609375 78.02488281 5.81640625 78.3828125 C5.14947754 78.69887451 4.48254883 79.01493652 3.79541016 79.34057617 C1.24426221 80.18267652 -0.6131344 80.33887283 -3.28515625 80.02734375 C-5.1628418 78.79321289 -5.1628418 78.79321289 -6.921875 77.0625 C-7.57696045 76.43126221 -8.2320459 75.80002441 -8.90698242 75.1496582 C-9.58865479 74.46991943 -10.27032715 73.79018066 -10.97265625 73.08984375 C-12.39907607 71.7089497 -13.82615836 70.32873962 -15.25390625 68.94921875 C-16.28837891 67.93891602 -16.28837891 67.93891602 -17.34375 66.90820312 C-19.83725304 64.49246527 -22.38899624 62.15891208 -24.97265625 59.83984375 C-25.69839844 59.18628906 -26.42414062 58.53273437 -27.171875 57.859375 C-29.49220851 55.84784743 -31.87552442 53.93057309 -34.28515625 52.02734375 C-39.06888369 53.69491071 -42.20936939 56.29295015 -46.00390625 59.56640625 C-48.71999292 61.30581792 -50.11697828 61.4821556 -53.28515625 61.02734375 C-56.49825971 58.59966558 -58.10363881 57.18905538 -58.734375 53.15234375 C-58.1308574 48.95396044 -56.513243 47.81551532 -53.28515625 45.15234375 C-51.89296875 43.98058594 -51.89296875 43.98058594 -50.47265625 42.78515625 C-49.75078125 42.20507812 -49.02890625 41.625 -48.28515625 41.02734375 C-49.72003972 37.56851938 -51.45723161 35.90672708 -54.41015625 33.65234375 C-58.17768995 30.44067568 -58.17768995 30.44067568 -59.09765625 26.90234375 C-58.00767243 23.04547794 -56.46591526 21.43058389 -53.28515625 19.02734375 C-50.984375 18.60546875 -50.984375 18.60546875 -48.28515625 19.02734375 C-45.60252612 20.8894886 -43.19373946 22.85445088 -40.74609375 25.00390625 C-39.06171521 26.44691509 -39.06171521 26.44691509 -36.28515625 28.02734375 C-32.09103886 27.27906793 -29.82696897 24.87157262 -26.97265625 21.83984375 C-23.59592867 18.34629363 -20.16427233 15.07086392 -16.453125 11.9375 C-14.77791759 10.46150644 -13.16696972 8.91239365 -11.5859375 7.3359375 C-11.1120459 6.87179443 -10.6381543 6.40765137 -10.14990234 5.92944336 C-8.78551926 4.58909918 -7.43915205 3.23048958 -6.09375 1.87109375 C-3.28515625 0.02734375 -3.28515625 0.02734375 0 0 Z M-3.21484375 26.01953125 C-4.01019531 26.64214844 -4.80554688 27.26476562 -5.625 27.90625 C-6.46160156 28.56496094 -7.29820313 29.22367188 -8.16015625 29.90234375 C-9.80265777 31.19233328 -11.44585859 32.48143303 -13.08984375 33.76953125 C-14.1878833 34.63360596 -14.1878833 34.63360596 -15.30810547 35.51513672 C-16.92091903 36.7487459 -18.5956722 37.90102105 -20.28515625 39.02734375 C-18.9735817 42.96206741 -17.11475357 43.90570632 -13.78515625 46.33984375 C-12.2846875 47.44779297 -12.2846875 47.44779297 -10.75390625 48.578125 C-6.65261053 51.47397231 -2.46255905 54.24240855 1.71484375 57.02734375 C1.71484375 45.80734375 1.71484375 34.58734375 1.71484375 23.02734375 C-0.21048016 23.02734375 -1.77418094 24.88678666 -3.21484375 26.01953125 Z " fill="#0188D0" transform="translate(66.28515625,7.97265625)"/>
<path d="M0 0 C19.57894737 8.15789474 19.57894737 8.15789474 21 11 C21.10623554 12.83226291 21.14880933 14.66836336 21.16113281 16.50366211 C21.17074036 17.65503159 21.1803479 18.80640106 21.19024658 19.99266052 C21.19449646 21.24160599 21.19874634 22.49055145 21.203125 23.77734375 C21.20882507 25.05476944 21.21452515 26.33219513 21.22039795 27.64833069 C21.22985795 30.35437588 21.23674984 33.06030988 21.24023438 35.76635742 C21.24572284 39.23455902 21.26975888 42.70236875 21.29820633 46.17044735 C21.32130165 49.47688329 21.32328009 52.78333842 21.328125 56.08984375 C21.3404718 57.33676498 21.3528186 58.58368622 21.36553955 59.86839294 C21.36253845 61.02291458 21.35953735 62.17743622 21.35644531 63.36694336 C21.36009094 64.38461288 21.36373657 65.40228241 21.36749268 66.45079041 C21 69 21 69 19.69671631 70.73805237 C16.85375121 72.85253259 13.64882724 74.23222493 10.4375 75.6875 C9.75236328 76.00783203 9.06722656 76.32816406 8.36132812 76.65820312 C3.27328758 79 3.27328758 79 1 79 C0.67 52.93 0.34 26.86 0 0 Z " fill="#28B5F5" transform="translate(67,8)"/>
<path d="M0 0 C3.16173849 6.32347697 2.80157553 16.33227413 1 23 C-2.18511748 27.86491628 -7.09035917 30.90570427 -12.03564453 33.79296875 C-14.06066059 35.03727392 -15.83345846 36.44896611 -17.68359375 37.9375 C-21 40 -21 40 -23.60546875 39.5703125 C-26.30760381 37.79827613 -28.82107125 35.9345811 -31.3125 33.875 C-32.19550781 33.15054688 -33.07851563 32.42609375 -33.98828125 31.6796875 C-34.65214844 31.12539063 -35.31601562 30.57109375 -36 30 C-34.8717446 28.8717446 -33.74312686 27.74385044 -32.61328125 26.6171875 C-31.4597124 25.46082551 -30.31190691 24.29870256 -29.16796875 23.1328125 C-25.31628212 19.22794676 -21.38674111 15.50197608 -17.21484375 11.94140625 C-15.50718986 10.44457383 -13.84008938 8.90139203 -12.19140625 7.33984375 C-11.46111206 6.65124268 -11.46111206 6.65124268 -10.71606445 5.94873047 C-9.30997694 4.61921092 -7.91259543 3.28050219 -6.515625 1.94140625 C-4 0 -4 0 0 0 Z " fill="#0176BC" transform="translate(67,8)"/>
<path d="M0 0 C3.23861303 1.44424635 5.61969163 3.25772247 8.25 5.625 C8.95640625 6.25664063 9.6628125 6.88828125 10.390625 7.5390625 C10.92171875 8.02117188 11.4528125 8.50328125 12 9 C10.47448479 12.96098687 8.06997159 14.77836988 4.6875 17.25 C3.74261719 17.95640625 2.79773437 18.6628125 1.82421875 19.390625 C-1.18637169 21.10620351 -2.60897678 21.53662657 -6 21 C-9.21568161 18.57037389 -10.82021225 17.16231201 -11.4453125 13.12109375 C-10.84946206 8.94491388 -9.2765785 7.83359268 -6.0625 5.1875 C-5.14597656 4.41792969 -4.22945312 3.64835937 -3.28515625 2.85546875 C-2.53105469 2.24316406 -1.77695312 1.63085938 -1 1 C-0.67 0.67 -0.34 0.34 0 0 Z " fill="#0176BC" transform="translate(19,48)"/>
</svg>
