<?xml version="1.0" encoding="UTF-8"?>
<svg version="1.1" xmlns="http://www.w3.org/2000/svg" width="300" height="213">
<path d="M0 0 C0.75661926 0.00021149 1.51323853 0.00042297 2.29278564 0.00064087 C13.46776913 0.03188072 23.82167049 0.56768731 34.4375 4.375 C35.5203125 4.76042969 36.603125 5.14585937 37.71875 5.54296875 C55.0034063 12.2866036 66.89753909 22.54289759 79.328125 35.96875 C83.12090353 40.05823034 86.99536856 44.0546249 90.9375 48 C91.47600586 48.54285645 92.01451172 49.08571289 92.56933594 49.64501953 C95.33923056 52.40553913 98.17638892 55.03523202 101.14648438 57.57958984 C105.40809864 61.29542633 109.40277307 65.22910656 113.375 69.25 C114.09937256 69.97815918 114.82374512 70.70631836 115.57006836 71.45654297 C118.63292424 74.53556951 121.68972311 77.62058323 124.74707031 80.70507812 C126.99594117 82.97215458 129.24790238 85.23612966 131.5 87.5 C132.17732178 88.18562012 132.85464355 88.87124023 133.55249023 89.57763672 C137.45666413 93.50152138 141.46593928 97.23022041 145.67358398 100.82763672 C149.03676786 103.77792868 149.03676786 103.77792868 150.4375 105.375 C150.47265625 107.765625 150.47265625 107.765625 149.4375 110.375 C129.90888231 129.74328421 101.50193073 138.5061132 74.625 138.8125 C46.81511631 138.67195732 22.90611509 128.83801424 1.4375 111.375 C-2.15889425 113.00582317 -5.17900006 115.19244784 -8.375 117.5 C-33.44763859 135.11165084 -63.08181757 142.44962449 -93.48461914 137.2434082 C-112.56887172 133.49990879 -129.5830846 125.91073958 -144.5625 113.375 C-145.573125 112.570625 -146.58375 111.76625 -147.625 110.9375 C-148.264375 110.421875 -148.90375 109.90625 -149.5625 109.375 C-149.1876782 104.37432863 -146.59217208 101.86226097 -143.125 98.5625 C-142.62162109 98.06041016 -142.11824219 97.55832031 -141.59960938 97.04101562 C-137.84381378 93.375 -137.84381378 93.375 -135.5625 93.375 C-135.5625 92.715 -135.5625 92.055 -135.5625 91.375 C-134.0838623 89.91760254 -134.0838623 89.91760254 -132.04492188 88.22851562 C-127.76225831 84.58460627 -123.79295149 80.7179506 -119.84375 76.71875 C-119.14157349 76.01278687 -118.43939697 75.30682373 -117.71594238 74.57946777 C-115.49565397 72.34708642 -113.27866045 70.11147889 -111.0625 67.875 C-108.13840521 64.92409622 -105.21086943 61.97666797 -102.28125 59.03125 C-101.625802 58.36750366 -100.970354 57.70375732 -100.29504395 57.01989746 C-96.4483053 53.15312499 -92.49072004 49.48327686 -88.3497467 45.932724 C-85.61598498 43.55003881 -83.05138554 41.01253735 -80.5 38.4375 C-79.98397217 37.92026367 -79.46794434 37.40302734 -78.9362793 36.87011719 C-76.13625234 34.0414871 -73.45080217 31.16205046 -70.875 28.125 C-58.94049725 14.30610207 -43.91196272 7.03684618 -26.5625 2.375 C-25.84006104 2.17922363 -25.11762207 1.98344727 -24.37329102 1.78173828 C-16.34168636 -0.11113018 -8.20260785 -0.02105632 0 0 Z M-48.5625 56.375 C-43.87679594 62.00383299 -38.87770448 67.21078987 -33.6875 72.375 C-32.92308594 73.14328125 -32.15867187 73.9115625 -31.37109375 74.703125 C-27.22786563 78.83931878 -22.99388954 82.78341927 -18.55810547 86.60205078 C-14.90511667 89.84746364 -11.49575084 93.33792299 -8.0625 96.8125 C-7.33546875 97.54404297 -6.6084375 98.27558594 -5.859375 99.02929688 C-4.09140501 100.80889824 -2.32583622 102.59080918 -0.5625 104.375 C3.28777206 102.79535813 5.68375535 100.34355605 8.578125 97.39453125 C9.06400085 96.90345383 9.54987671 96.4123764 10.05047607 95.90641785 C11.60100303 94.33814352 13.14469156 92.76336518 14.6875 91.1875 C16.71006097 89.12805439 18.73586363 87.07188088 20.765625 85.01953125 C21.25857056 84.52104172 21.75151611 84.02255219 22.25939941 83.50895691 C25.57097269 80.18396565 28.99685956 77.06141321 32.56542969 74.01782227 C36.01637383 70.98947027 39.21329104 67.70337369 42.4375 64.4375 C43.11683594 63.75365234 43.79617187 63.06980469 44.49609375 62.36523438 C46.14558359 60.70412841 47.7926668 59.04071487 49.4375 57.375 C48.4475 56.88 48.4475 56.88 47.4375 56.375 C44.95418277 57.22573835 42.55373139 58.13837183 40.125 59.125 C12.84914721 69.77305558 -15.38374944 68.32084712 -42.5625 58.375 C-44.56043784 57.70217847 -46.55978581 57.03346815 -48.5625 56.375 Z " fill="#AA70D9" transform="translate(149.5625,-0.375)"/>
<path d="M0 0 C9.85920503 8.24760421 9.85920503 8.24760421 12.8125 13.1875 C12.50560594 18.49353676 9.50840915 21.64765611 5.8125 25.1875 C-9.94183835 38.82815177 -30.83428208 48.19810996 -51.83203125 48.42578125 C-52.56008469 48.433853 -53.28813812 48.44192474 -54.03825378 48.45024109 C-55.57878286 48.46401884 -57.11934166 48.47476896 -58.65991211 48.48266602 C-60.20037094 48.49407682 -61.74079376 48.51435124 -63.28100586 48.54418945 C-79.22866591 48.85203278 -93.70691394 46.19225309 -108.1875 39.1875 C-109.10917969 38.74664062 -110.03085938 38.30578125 -110.98046875 37.8515625 C-121.35199114 32.55608844 -129.93514114 25.27151263 -137.1875 16.1875 C-133.33501916 4.24265719 -119.77471493 -3.34376005 -109.35595703 -8.765625 C-75.5904549 -25.85410313 -30.33124562 -23.30327408 0 0 Z " fill="#A86FDA" transform="translate(212.1875,164.8125)"/>
</svg>
