<?xml version="1.0" encoding="UTF-8"?>
<svg version="1.1" xmlns="http://www.w3.org/2000/svg" width="64" height="64">
<path d="M0 0 C3.10630727 1.71664349 5.50537853 3.77575591 6.86328125 7.13671875 C7.23839844 7.75160156 7.61351562 8.36648438 8 9 C10.25327979 9.59210651 10.25327979 9.59210651 12.8125 9.5625 C16.98152816 9.8272002 19.70500703 10.21984968 23 13 C25.70575059 17.35151642 25.11266729 21.15815873 24 26 C23.443125 26.9075 22.88625 27.815 22.3125 28.75 C21.879375 29.4925 21.44625 30.235 21 31 C21.62533375 33.52363988 21.62533375 33.52363988 23 36 C24.96637756 40.76070357 25.30357848 43.97191157 24 49 C22.10888889 51.3181362 20.66171969 52.66914015 18 54 C16.37559461 54.07640931 14.75041271 54.13685658 13.125 54.1875 C10.43796035 54.35619705 10.43796035 54.35619705 8 55 C5.53786305 57.77616548 5.53786305 57.77616548 4 61 C1.37024127 63.81759864 0.04048862 63.99477566 -3.875 64.5 C-8.68074746 64.32068106 -10.73367617 62.42186306 -14 59 C-14.28488281 58.29488281 -14.56976562 57.58976562 -14.86328125 56.86328125 C-15.23839844 56.24839844 -15.61351563 55.63351563 -16 55 C-18.25327979 54.40789349 -18.25327979 54.40789349 -20.8125 54.4375 C-24.98152816 54.1727998 -27.70500703 53.78015032 -31 51 C-33.70575059 46.64848358 -33.11266729 42.84184127 -32 38 C-31.1646875 36.63875 -31.1646875 36.63875 -30.3125 35.25 C-29.879375 34.5075 -29.44625 33.765 -29 33 C-29.61141128 30.42885788 -29.61141128 30.42885788 -31 28 C-32.7825303 24.13785103 -33.44463373 21.26848385 -33 17 C-31.27471201 13.20436642 -29.8441689 11.52676211 -26 10 C-24.33701556 9.86141796 -22.66846957 9.78052078 -21 9.75 C-18.37162296 9.60767732 -18.37162296 9.60767732 -16 9 C-13.53786305 6.22383452 -13.53786305 6.22383452 -12 3 C-8.65225077 -0.58687418 -4.67288242 -0.97052173 0 0 Z M-9.875 7 C-10.57625 7.99 -11.2775 8.98 -12 10 C-8.91027582 13.08972418 -5.25171066 12.96334732 -1 13 C1.94661406 12.21136479 1.94661406 12.21136479 4 11 C2.47793991 8.37098712 1.15634036 6.15634036 -1 4 C-5.30234682 3.23513834 -7.15262314 3.7114308 -9.875 7 Z M-27.5 15.5625 C-29.32810126 18.02926613 -29.32810126 18.02926613 -28.875 21.5625 C-28.17969518 25.09045845 -28.17969518 25.09045845 -26 28 C-22.60525334 26.59527724 -20.78835755 25.23607557 -19 22 C-18.46617288 19.3205985 -18.22766917 16.73203009 -18 14 C-23.00879575 13.60412759 -23.00879575 13.60412759 -27.5 15.5625 Z M-14 14 C-14.33 15.65 -14.66 17.3 -15 19 C-13.35 18.34 -11.7 17.68 -10 17 C-10 16.34 -10 15.68 -10 15 C-11.32 14.67 -12.64 14.34 -14 14 Z M10 14 C10.8658481 20.79037381 10.8658481 20.79037381 14.125 26.625 C14.74375 27.07875 15.3625 27.5325 16 28 C19.13687272 27.32481735 19.13687272 27.32481735 20.25 24.8125 C21.14865784 21.4425331 20.96475302 19.33952967 20 16 C16.3558226 13.5705484 14.28758728 13.83820425 10 14 Z M2 15 C2 15.66 2 16.32 2 17 C4.475 17.99 4.475 17.99 7 19 C6.67 17.35 6.34 15.7 6 14 C4.63106761 13.94729537 4.63106761 13.94729537 2 15 Z M-13.578125 22.5390625 C-16.68100393 25.69198786 -17.05748261 27.62012779 -17.375 32 C-17.04490793 36.29119694 -16.61618164 38.3162916 -13.71875 41.53125 C-10.78364807 43.56324364 -8.44239102 45.02929966 -5 46 C-1.85501672 45.36141856 -1.85501672 45.36141856 1 44 C2.04800781 43.60554688 2.04800781 43.60554688 3.1171875 43.203125 C5.32843234 42.00413891 6.52542988 41.06274135 8 39 C9.27872897 34.06603633 9.39759683 29.9141308 8 25 C4.76382151 21.67976492 1.28989326 19.71338079 -3 18 C-7.02542425 18 -10.29192962 20.40912105 -13.578125 22.5390625 Z M-21 30 C-21 31.32 -21 32.64 -21 34 C-20.67 32.68 -20.34 31.36 -20 30 C-20.33 30 -20.66 30 -21 30 Z M12 30 C12.33 31.32 12.66 32.64 13 34 C13 32.68 13 31.36 13 30 C12.67 30 12.34 30 12 30 Z M-26 36 C-27.9738064 39.31599474 -29.02511183 41.34709242 -28.875 45.25 C-28.21799254 48.30584028 -28.21799254 48.30584028 -25 50 C-22.66800612 50.07905064 -20.33167378 50.08798769 -18 50 C-18.87868252 43.25615514 -18.87868252 43.25615514 -22 37.375 C-23.87017048 35.81115706 -23.87017048 35.81115706 -26 36 Z M13.4375 38.5 C10.44911631 42.17395407 10.24053529 45.34965102 10 50 C15.00879575 50.39587241 15.00879575 50.39587241 19.5 48.4375 C21.32810126 45.97073387 21.32810126 45.97073387 20.875 42.4375 C20.17969518 38.90954155 20.17969518 38.90954155 18 36 C15.64192717 35.76722538 15.64192717 35.76722538 13.4375 38.5 Z M-15 45 C-14.67 46.65 -14.34 48.3 -14 50 C-12.68 49.67 -11.36 49.34 -10 49 C-10 48.34 -10 47.68 -10 47 C-12.475 46.01 -12.475 46.01 -15 45 Z M2 47 C2 47.66 2 48.32 2 49 C3.32 49.33 4.64 49.66 6 50 C6.33 48.35 6.66 46.7 7 45 C4.67642489 44.81509993 4.67642489 44.81509993 2 47 Z M-12 53 C-10.47793991 55.62901288 -9.15634036 57.84365964 -7 60 C-4.1284035 60.66790364 -4.1284035 60.66790364 -1 60 C1.05254178 58.16604059 2.39139231 56.27097556 4 54 C-0.13430504 49.86569496 -7.08334449 50.30376956 -12 53 Z " fill="#00CEDD" transform="translate(36,0)"/>
<path d="M0 0 C1.875 1.125 1.875 1.125 3 3 C3.39365568 6.14924548 3.52854531 8.11909116 1.875 10.875 C-0.88090884 12.52854531 -2.85075452 12.39365568 -6 12 C-7.875 10.875 -7.875 10.875 -9 9 C-9.39365568 5.85075452 -9.52854531 3.88090884 -7.875 1.125 C-5.11909116 -0.52854531 -3.14924548 -0.39365568 0 0 Z M-5 4 C-5 5.32 -5 6.64 -5 8 C-3.68 8 -2.36 8 -1 8 C-1 6.68 -1 5.36 -1 4 C-2.32 4 -3.64 4 -5 4 Z " fill="#00CDDD" transform="translate(35,26)"/>
</svg>
