<?xml version="1.0" encoding="UTF-8"?>
<svg version="1.1" xmlns="http://www.w3.org/2000/svg" width="64" height="64">
<path d="M0 0 C4.42881771 1.13171286 6.78198763 3.68835355 9.9296875 6.89941406 C10.56488312 7.52886932 11.20007874 8.15832458 11.85452271 8.80685425 C13.19132767 10.13958252 14.5206103 11.47989316 15.84277344 12.82714844 C17.86824684 14.88474132 19.92371379 16.90838193 21.984375 18.93066406 C23.28057397 20.23082799 24.57491041 21.53285197 25.8671875 22.83691406 C26.48270477 23.44028595 27.09822205 24.04365784 27.73239136 24.66531372 C30.33338123 27.35395381 31.82872726 29.09634696 32.76660156 32.76660156 C31.6348887 37.19541927 29.07824801 39.54858919 25.8671875 42.69628906 C25.23773224 43.33148468 24.60827698 43.9666803 23.95974731 44.62112427 C22.62701905 45.95792923 21.28670841 47.28721187 19.93945312 48.609375 C17.88186025 50.63484841 15.85821964 52.69031535 13.8359375 54.75097656 C12.53577358 56.04717553 11.23374959 57.34151198 9.9296875 58.63378906 C9.02462967 59.55706497 9.02462967 59.55706497 8.10128784 60.49899292 C5.41264775 63.09998279 3.6702546 64.59532882 0 65.53320312 C-4.42881771 64.40149027 -6.78198763 61.84484957 -9.9296875 58.63378906 C-10.56488312 58.0043338 -11.20007874 57.37487854 -11.85452271 56.72634888 C-13.19132767 55.39362061 -14.5206103 54.05330997 -15.84277344 52.70605469 C-17.86824684 50.64846181 -19.92371379 48.6248212 -21.984375 46.60253906 C-23.28057397 45.30237514 -24.57491041 44.00035115 -25.8671875 42.69628906 C-26.79046341 41.79123123 -26.79046341 41.79123123 -27.73239136 40.8678894 C-30.33338123 38.17924931 -31.82872726 36.43685616 -32.76660156 32.76660156 C-31.6348887 28.33778386 -29.07824801 25.98461393 -25.8671875 22.83691406 C-24.92300461 21.88412064 -24.92300461 21.88412064 -23.95974731 20.91207886 C-22.62701905 19.5752739 -21.28670841 18.24599126 -19.93945312 16.92382812 C-17.88186025 14.89835472 -15.85821964 12.84288778 -13.8359375 10.78222656 C-12.53577358 9.48602759 -11.23374959 8.19169115 -9.9296875 6.89941406 C-9.32631561 6.28389679 -8.72294373 5.66837952 -8.10128784 5.03421021 C-5.41264775 2.43322033 -3.6702546 0.9378743 0 0 Z " fill="#EE5C51" transform="translate(32,-0.7666015625)"/>
<path d="M0 0 C2.89057007 0.4282326 4.12872814 1.10562309 6.4375 3 C9.13854632 5.10813371 10.69646911 5.46429229 14 6 C16 8 16 8 16.9375 11.4375 C18.04257059 15.46973406 18.04257059 15.46973406 21 18 C23.31765729 18.71927295 25.65095874 19.3909893 28 20 C29 21 29 21 29.1875 23.9375 C29 27 29 27 27 29 C23.375 28.625 23.375 28.625 20 28 C19.82984375 27.38511719 19.6596875 26.77023438 19.484375 26.13671875 C19.12085938 24.92435547 19.12085938 24.92435547 18.75 23.6875 C18.51796875 22.88699219 18.2859375 22.08648438 18.046875 21.26171875 C16.81310715 18.59622777 15.44690345 17.56217596 13 16 C12.9190687 18.60478883 12.85954566 21.20706653 12.8125 23.8125 C12.78736328 24.55048828 12.76222656 25.28847656 12.73632812 26.04882812 C12.58303401 30.26058336 12.58303401 30.26058336 14.4921875 33.8515625 C15.23855469 34.42003906 15.23855469 34.42003906 16 35 C16.3125 37.5625 16.3125 37.5625 16 40 C14 42 14 42 11 42.25 C8 42 8 42 6 40 C5.6875 37 5.6875 37 6 34 C6.99 33.34 7.98 32.68 9 32 C9.30400756 29.2609515 9.41829599 26.79736367 9.375 24.0625 C9.38660156 23.33353516 9.39820313 22.60457031 9.41015625 21.85351562 C9.45680116 17.71933601 9.45680116 17.71933601 7.53515625 14.2109375 C7.02855469 13.81132812 6.52195312 13.41171875 6 13 C5.690625 11.865625 5.38125 10.73125 5.0625 9.5625 C3.94487189 5.81515868 2.83421133 4.5507902 0 2 C0 1.34 0 0.68 0 0 Z " fill="#FEF8F7" transform="translate(21,8)"/>
<path d="M0 0 C1.33897583 0.95043374 2.67105427 1.91059147 4 2.875 C5.11375 3.67550781 5.11375 3.67550781 6.25 4.4921875 C6.8275 4.98976563 7.405 5.48734375 8 6 C8 6.66 8 7.32 8 8 C6.3125 8.8125 6.3125 8.8125 4 9 C1.1875 6.8125 1.1875 6.8125 -1 4 C-0.63671875 1.82421875 -0.63671875 1.82421875 0 0 Z " fill="#E05248" transform="translate(38,18)"/>
</svg>
