<?xml version="1.0" encoding="UTF-8"?>
<svg version="1.1" xmlns="http://www.w3.org/2000/svg" width="64" height="64">
<path d="M0 0 C21.12 0 42.24 0 64 0 C64 21.12 64 42.24 64 64 C42.88 64 21.76 64 0 64 C0 42.88 0 21.76 0 0 Z " fill="#3378C6" transform="translate(0,0)"/>
<path d="M0 0 C1 1 1 1 1 6 C-2.3 6 -5.6 6 -9 6 C-9 6.99 -9 7.98 -9 9 C-8.07767578 9.47179687 -8.07767578 9.47179687 -7.13671875 9.953125 C-6.32847656 10.38109375 -5.52023438 10.8090625 -4.6875 11.25 C-3.88699219 11.66765625 -3.08648437 12.0853125 -2.26171875 12.515625 C0.18607209 14.12211985 1.51291263 15.48634263 3 18 C3.0625 21.5 3.0625 21.5 2 25 C-1.38945342 28.30471708 -4.07323935 29.23722658 -8.6875 29.3125 C-11.47198737 29.22112649 -13.3146844 28.8951052 -16 28 C-16 26.02 -16 24.04 -16 22 C-12.7 22.33 -9.4 22.66 -6 23 C-5.67 21.68 -5.34 20.36 -5 19 C-5.54269531 18.74605469 -6.08539063 18.49210937 -6.64453125 18.23046875 C-7.35996094 17.88628906 -8.07539062 17.54210937 -8.8125 17.1875 C-9.52019531 16.85105469 -10.22789063 16.51460937 -10.95703125 16.16796875 C-13.07736015 14.95577307 -14.48760726 13.91724865 -16 12 C-16.86446204 5.19236143 -16.86446204 5.19236143 -14.1875 1.5 C-9.54093203 -0.68662022 -5.06059442 -0.51794674 0 0 Z " fill="#F5F8FC" transform="translate(56,30)"/>
<path d="M0 0 C7.26 0 14.52 0 22 0 C22 1.65 22 3.3 22 5 C19.36 5 16.72 5 14 5 C14 12.59 14 20.18 14 28 C12.02 28 10.04 28 8 28 C8 20.41 8 12.82 8 5 C5.36 5 2.72 5 0 5 C0 3.35 0 1.7 0 0 Z " fill="#F7FAFC" transform="translate(15,30)"/>
</svg>
